<?xml version="1.0" encoding="iso-8859-1"?>
<!-- Generator: Adobe Illustrator 25.0.1, SVG Export Plug-In . SVG Version: 6.00 Build 0)  -->
<svg version="1.1" id="Layer_1" xmlns="http://www.w3.org/2000/svg" xmlns:xlink="http://www.w3.org/1999/xlink" x="0px" y="0px"
	 viewBox="0 0 237 205" style="enable-background:new 0 0 237 205;" xml:space="preserve">
<g>
	<g>
		<path style="fill:#43D9AB;" d="M94.017,149.078c-10.929-7.778-18.059-20.549-18.059-34.985c0-0.562,0.033-1.115,0.055-1.672
			c-3.39-2.883-7.124-5.281-11.084-7.178c-0.472,2.881-0.726,5.835-0.726,8.85c0,20.808,11.635,38.883,28.745,48.118
			C93.861,157.924,94.229,153.511,94.017,149.078z"/>
		<path style="fill:#43D9AB;" d="M143.565,149.078c10.929-7.778,18.059-20.549,18.059-34.985c0-0.562-0.033-1.115-0.055-1.672
			c3.39-2.883,7.124-5.281,11.084-7.178c0.472,2.881,0.726,5.835,0.726,8.85c0,20.808-11.635,38.883-28.745,48.118
			C143.722,157.924,143.354,153.511,143.565,149.078z"/>
		<path style="fill:#43D9AB;" d="M104.656,73.587c4.434-1.553,9.197-2.406,14.161-2.406c5.088,0,9.964,0.896,14.492,2.522
			c4.973-1.419,9.637-3.566,13.871-6.323c-8.27-5.038-17.971-7.954-28.363-7.954c-10.233,0-19.797,2.827-27.984,7.723
			C95.046,69.942,99.695,72.126,104.656,73.587z"/>
	</g>
	<path style="fill:#43D9AB;" d="M204.015,88.933c-11.219-5.62-23.357-7.387-34.918-5.813c6.373-9.53,10.094-20.983,10.094-33.308
		c0-21.556-11.373-40.449-28.44-51.028c12.054,9.402,19.815,24.052,19.815,40.525c0,28.375-23.003,51.378-51.378,51.378
		S67.81,67.684,67.81,39.309c0-16.472,7.761-31.122,19.815-40.525c-17.067,10.579-28.44,29.472-28.44,51.028
		c0,12.375,3.749,23.872,10.169,33.425c-11.786-1.757-24.208-0.047-35.671,5.696C14.41,98.588,2.612,117.219,0.798,137.217
		c3.007-14.989,12.629-28.49,27.357-35.868c25.37-12.71,56.239-2.446,68.948,22.923s2.447,56.239-22.923,68.948
		c-14.728,7.378-31.302,7.001-45.108,0.435c17.103,10.521,39.089,12.227,58.362,2.572c16.403-8.217,27.385-22.939,31.414-39.468
		c4.029,16.529,15.011,31.251,31.414,39.468c19.273,9.655,41.259,7.949,58.362-2.572c-13.806,6.566-30.38,6.943-45.108-0.435
		c-25.37-12.71-35.633-43.579-22.923-68.948c12.71-25.37,43.579-35.633,68.948-22.923c14.728,7.378,24.35,20.879,27.357,35.868
		C235.086,117.219,223.288,98.588,204.015,88.933z M118.849,128.369c-1.051-4.296-2.578-8.543-4.643-12.665
		c-1.148-2.291-2.436-4.463-3.825-6.539c2.875,0.423,5.814,0.649,8.807,0.649c2.737,0,5.426-0.2,8.066-0.555
		c-1.364,2.048-2.631,4.188-3.762,6.445C121.427,119.826,119.9,124.074,118.849,128.369z"/>
</g>
</svg>
